<svg xmlns="http://www.w3.org/2000/svg" viewBox="0 0 95.148 117"><g id="ae62e8cd-bf2c-43db-a104-3771ad226a99" data-name="TM"><path d="M28.624,108.89a8.352,8.352,0,0,0,0-5.909,7.148,7.148,0,0,0-1.513-2.364,6.944,6.944,0,0,0-2.291-1.565,7.642,7.642,0,0,0-5.743,0,6.923,6.923,0,0,0-2.291,1.565,7.134,7.134,0,0,0-1.514,2.364,8.367,8.367,0,0,0,0,5.909,7.145,7.145,0,0,0,1.514,2.364,6.923,6.923,0,0,0,2.291,1.565,7.642,7.642,0,0,0,5.743,0,6.968,6.968,0,0,0,1.846-1.15l1.564,1.523h1.514l-2.337-2.276A7.19,7.19,0,0,0,28.624,108.89Zm-4.271,2.882a6.439,6.439,0,0,1-4.81,0,5.639,5.639,0,0,1-1.907-1.317,6.011,6.011,0,0,1-1.255-2,7.352,7.352,0,0,1,0-5.038,6.032,6.032,0,0,1,1.255-2,5.651,5.651,0,0,1,1.907-1.316,6.426,6.426,0,0,1,4.81,0,5.543,5.543,0,0,1,1.9,1.316,6.139,6.139,0,0,1,1.245,2,7.352,7.352,0,0,1,0,5.038,6.249,6.249,0,0,1-.935,1.637l-3.2-3.119H21.845l3.987,3.884A5.589,5.589,0,0,1,24.353,111.772Z"/><rect x="32.721" y="97.02" width="1.078" height="16.172"/><path d="M38.224,98.575a.73.73,0,0,0-.55.228.778.778,0,0,0,0,1.078.776.776,0,0,0,1.1,0,.775.775,0,0,0,0-1.078A.726.726,0,0,0,38.224,98.575Z"/><rect x="37.685" y="103.655" width="1.078" height="9.537"/><path d="M49.534,104.048a4.551,4.551,0,0,0-2.322-.6,3.655,3.655,0,0,0-1.659.374,3.713,3.713,0,0,0-1.275,1.046,4.764,4.764,0,0,0-.611,1.043V97.02H42.588v16.172h1.079v-2.255a4.757,4.757,0,0,0,.611,1.042,3.7,3.7,0,0,0,1.275,1.047,3.654,3.654,0,0,0,1.659.373,4.541,4.541,0,0,0,2.322-.6,4.421,4.421,0,0,0,1.659-1.721,5.973,5.973,0,0,0,0-5.308A4.435,4.435,0,0,0,49.534,104.048Zm.7,6.5a3.532,3.532,0,0,1-1.327,1.359,3.634,3.634,0,0,1-1.845.476,2.928,2.928,0,0,1-1.275-.29,3.38,3.38,0,0,1-1.089-.829A4.146,4.146,0,0,1,43.946,110a4.591,4.591,0,0,1,0-3.152,4.14,4.14,0,0,1,.757-1.264,3.4,3.4,0,0,1,1.089-.83,2.942,2.942,0,0,1,1.275-.29,3.7,3.7,0,0,1,1.845.467,3.443,3.443,0,0,1,1.327,1.358,4.312,4.312,0,0,1,.5,2.135A4.252,4.252,0,0,1,50.239,110.548Z"/><path d="M57.952,103.447a2.051,2.051,0,0,0-1.358.518,3.346,3.346,0,0,0-.82,1.085v-1.395H54.7v9.537h1.077v-5.8a5.438,5.438,0,0,1,.187-1.472,2.224,2.224,0,0,1,.612-1.058,1.6,1.6,0,0,1,1.13-.394,1.743,1.743,0,0,1,.653.114,2.812,2.812,0,0,1,.591.342l.6-.891a2,2,0,0,0-.736-.446A2.7,2.7,0,0,0,57.952,103.447Z"/><path d="M62.687,98.575a.726.726,0,0,0-.549.228.775.775,0,0,0,0,1.078.776.776,0,0,0,1.1,0,.778.778,0,0,0,0-1.078A.73.73,0,0,0,62.687,98.575Z"/><rect x="62.148" y="103.655" width="1.078" height="9.537"/><path d="M73.154,109.46a3.026,3.026,0,0,1-.363,1.472,2.814,2.814,0,0,1-1,1.058,2.669,2.669,0,0,1-1.44.393,2.282,2.282,0,0,1-1.265-.321,1.891,1.891,0,0,1-.736-.923,3.867,3.867,0,0,1-.239-1.43v-6.054H67.037v6.178a4.651,4.651,0,0,0,.353,1.9,2.718,2.718,0,0,0,1.036,1.234,3.369,3.369,0,0,0,3.546-.145,3.49,3.49,0,0,0,1.182-1.617v1.99h1.078v-9.537H73.154Z"/><path d="M89.879,105.075a2.494,2.494,0,0,0-2.457-1.628,2.867,2.867,0,0,0-1.741.581,3.611,3.611,0,0,0-1.2,1.617,3.15,3.15,0,0,0-.487-1.171,2.362,2.362,0,0,0-.871-.757,2.845,2.845,0,0,0-2.374-.021,2.82,2.82,0,0,0-.954.726,3.66,3.66,0,0,0-.663,1.161v-1.928H78.051v9.537h1.078v-5.8a3.332,3.332,0,0,1,.332-1.514,2.6,2.6,0,0,1,.9-1.037,2.283,2.283,0,0,1,1.275-.373,1.892,1.892,0,0,1,1.1.3,1.737,1.737,0,0,1,.643.881,4.219,4.219,0,0,1,.208,1.41v6.137h1.078v-5.8a3.274,3.274,0,0,1,.331-1.5,2.688,2.688,0,0,1,.9-1.037,2.231,2.231,0,0,1,1.275-.384,1.892,1.892,0,0,1,1.1.3,1.737,1.737,0,0,1,.643.881,4.22,4.22,0,0,1,.207,1.41v6.137H90.2V106.93A4.848,4.848,0,0,0,89.879,105.075Z"/><circle cx="53.808" cy="55.904" r="2.057" fill="#f04923"/><circle cx="46.277" cy="47.571" r="2.057" fill="#f04923"/><circle cx="20.508" cy="42.464" r="2.057" fill="#f04923"/><circle cx="16.704" cy="52.401" r="2.057" fill="#f04923"/><circle cx="17.943" cy="64.217" r="2.057" fill="#f04923"/><circle cx="24.383" cy="73.5" r="2.057" fill="#f04923"/><circle cx="33.154" cy="80.694" r="2.057" fill="#f04923"/><circle cx="43.811" cy="84.736" r="2.057" fill="#f04923"/><circle cx="55.243" cy="85.915" r="2.057" fill="#f04923"/><circle cx="65.704" cy="82.951" r="2.057" fill="#f04923"/><circle cx="80.363" cy="71.412" r="2.057" fill="#f04923"/><circle cx="85.604" cy="62.263" r="2.057" fill="#f04923"/><circle cx="88.379" cy="52.024" r="2.057" fill="#f04923"/><circle cx="88.48" cy="41.448" r="2.057" fill="#f04923"/><circle cx="86.17" cy="31.572" r="2.057" fill="#f04923"/><circle cx="80.437" cy="22.191" r="2.595" fill="#f04923"/><circle cx="71.464" cy="13.683" r="2.779" fill="#f04923"/><circle cx="60.632" cy="8.151" r="3.007" fill="#f04923"/><circle cx="47.59" cy="6.794" r="3.193" fill="#f04923"/><circle cx="33.962" cy="10.005" r="3.409" fill="#f04923"/><circle cx="21.561" cy="17.49" r="3.58" fill="#f04923"/><circle cx="11.463" cy="28.366" r="3.782" fill="#f04923"/><circle cx="5.063" cy="42.452" r="3.985" fill="#f04923"/><polygon points="81.064 87.32 59.255 63.384 60.774 61.997 83.831 87.32 81.064 87.32" fill="#f04923"/><circle cx="28.956" cy="36.733" r="2.057" fill="#f04923"/><circle cx="38.664" cy="39.117" r="2.057" fill="#f04923"/><polygon points="91.031 103.855 91.352 103.855 91.352 104.964 91.506 104.964 91.506 103.855 91.828 103.855 91.828 103.712 91.031 103.712 91.031 103.855"/><polygon points="93.177 104.964 93.026 103.651 92.526 104.556 92.025 103.651 91.875 104.964 92.025 104.964 92.118 104.122 92.526 104.849 92.933 104.122 93.026 104.964 93.177 104.964"/></g></svg>